<?xml version="1.0" encoding="UTF-8" standalone="no"?>
<svg
   xmlns:dc="http://purl.org/dc/elements/1.1/"
   xmlns:cc="http://creativecommons.org/ns#"
   xmlns:rdf="http://www.w3.org/1999/02/22-rdf-syntax-ns#"
   xmlns:svg="http://www.w3.org/2000/svg"
   xmlns="http://www.w3.org/2000/svg"
   version="1.1"
   id="Layer_1"
   x="0px"
   y="0px"
   viewBox="0 0 1400 1400"
   enable-background="new 0 0 1400 1400"
   xml:space="preserve"><metadata
   id="metadata271"><rdf:RDF><cc:Work
       rdf:about=""><dc:format>image/svg+xml</dc:format><dc:type
         rdf:resource="http://purl.org/dc/dcmitype/StillImage" /><dc:title></dc:title></cc:Work></rdf:RDF></metadata><defs
   id="defs269" />
<g
   id="g72">
	<path
   fill="#FF0037"
   d="M588.2,435.2c-4.2-0.4-13.4,0-14.5-5.7c-1.6-8.6,14.1-8.1,19-7.7c5.1,0.4,10.3,0.6,15.1-1.2   c10.3-3.8,14-14.7,11.1-24.7c-3.1-10.6-13.1-16.5-23.3-18.5c-5.6-1.1-11.3-1.2-16.9-1.5c-4.4-0.3-7.4-2.1-9.6-5.9   c0-0.7-0.1-1.4-0.3-2.1c-1.3-4.5,2.8-7.8,6.3-9.8c5.6-3.3,12.1-5.5,18-8.1c12-5.2,24.2-10,36-15.8c20.7-10.2,37.7-29.5,32-53.9   c-3.9-16.7-18-29.5-34.4-34.1c-19.8-5.7-36.3,1.7-50.3,15.6c-7.7,7.7-15.2,15.5-23.5,22.5c-6.9,5.8-17.9,16.5-27.4,14.7   c-8-1.5-11.9-9.1-11.5-16.9c0.6-10.9,10-20.2,17.3-27.2c8.6-8.3,17.6-16.4,23.1-27.2c5.5-10.8,6.8-22.8,5.1-34.7   c-3.7-25.8-27-35.9-50.8-32.6c-21,3-38.3,17.6-46.9,36.6c-5.3,11.6-8.4,24.7-15.5,35.6c-4.4,6.9-11.8,13.5-19.8,15.8   c-6.6,1.9-14.5-0.5-17.2-7.2c-4.5-11.3,4-23.2,6.6-33.9c2.9-11.8-2.2-24.5-12.3-31.3c-9.5-6.4-22.8-3.8-31.4,2.8   c-11,8.5-10.2,22.1-7.8,34.5c2,10.6,0.8,20.7-5.2,29.9c-9.7,14.9-33.1,17.4-46.7,6.5c-13.3-10.6-19.6-27.5-27.6-42   c-5.4-9.7-12-19.1-20.8-26c-9.7-7.7-21-10.9-33.2-11.7c-22.6-1.6-46.3,7.5-60.3,25.7c-13.9,18.3-15.8,42.2-4.3,62.1   c12.2,21.2,35,32.6,55.5,44.1c15.7,8.8,40,22.6,33.9,44.4c-2.8,10.2-13.1,11.2-22.2,10.6c-12-0.8-23.2-2.2-35.1-0.1   c-11.2,2-22.4,8-28.6,17.8c-6.2,9.8-3.3,22.6,3.5,31.3c6,7.7,14.9,11.4,24.4,12.6c10.2,1.2,20-3.8,28.8-8.2   c6.6-3.3,13.9-6.7,21.4-5c6.7,1.5,8.5,8.7,6.8,14.6c-2.1,7.3-10.2,10.2-16.2,13.8c-12.4,7.2-29.1,16.1-25.2,33.2   c2.6,11.5,15.5,17.7,26.3,16c5.4-0.8,10.8-3.2,14.8-7c3.7-3.6,5.5-9.1,10.1-11.8c9.7-5.5,16.4,5.4,16.2,14.1   c-0.3,10.5-10.3,19.1-17.9,25.1c-8.9,7.1-17.2,14.5-22.9,24.6c-6.1,10.7-9.1,23.5-5.4,35.5c3,9.5,10.2,16.4,19.6,19.5   c10,3.3,21,0.7,30.3-3.4c9.2-4,16.1-11.3,22-19.2c5.3-7.1,9.6-14.8,16.3-20.7c15.3-13.5,44.3-3.5,48.8,16.1   c2.4,10.4-0.1,21.5-1.9,31.8c-2.2,12.6-3.7,25.7,0.9,38c3.9,10.1,11.3,18.2,20.5,24c20.3,12.7,48.5,9.3,68.1-3   c9.9-6.2,16.9-15.4,20.4-26.5c3.5-11.2,2.3-23.6,0-35c-2.2-10.6-8.5-23-3.1-33.5c4.4-8.7,14-11.8,22.9-9   c10.6,3.4,12.9,15.8,16.1,25c3.5,10.4,9.4,19.7,20.1,23.7c10,3.7,22.2-1.6,28.2-9.9c6.7-9.3,6.2-21.9,0.7-31.7   c-5.6-10-16.6-15.3-25.5-21.7c-4.3-3.1-9.5-8.1-9.4-13.9c0.4-17.3,21.8-7.4,29.1-2.3c9.5,6.8,22.6,6.4,28.5-4.8   c5.8-10.9-2.4-21.4-11.7-26.5c-5.2-2.9-20.1-5.5-17.9-14c2.8-10.8,18.8-6.6,25.6-3.6c10.2,4.5,17.5,12.8,26.6,19   c9.6,6.6,21.4,7.7,31.7,2.1c11.3-6,15.2-19.2,8.4-30C636.9,433.7,608.6,437,588.2,435.2z"
   id="path10" />
	<g
   id="g36">
		<path
   fill="#FF5C8E"
   d="M269.8,347.5c7.7-27.8-21.7-44.2-37.5-53c-1.6-0.9-3.2-1.8-4.8-2.7c-18.5-10.2-37.6-20.8-47.8-38.5    c-9.9-17.2-8.4-37.8,3.8-53.8c8.7-11.4,22.2-19.2,37.4-21.9c-17.9,1.3-34.1,9.6-44.1,22.7c-12.2,16-13.7,36.6-3.8,53.8    c10.2,17.7,29.3,28.3,47.8,38.5c1.6,0.9,3.2,1.8,4.8,2.7c15.8,8.8,45.2,25.2,37.5,53c-1.7,6-6,13-16.9,15.4    C262,363,267.8,354.6,269.8,347.5z"
   id="path12" />
		<path
   fill="#FF5C8E"
   d="M186,400.3c-4.6-5.9-7.5-15.4-3-22.6c4.5-7.1,13.2-12.4,23.3-14.3c-2.3,0.2-4.4,0.4-6.5,0.8    c-10.2,1.8-19,7.2-23.5,14.4c-4.5,7.1-1.6,16.7,3,22.6c4.3,5.4,10.8,8.7,19.3,9.7c0.7,0.1,1.5,0.1,2.3,0.1c2.1,0,4.2-0.3,6.3-0.9    c-0.6,0-1.2,0-1.8-0.1C196.8,409,190.3,405.8,186,400.3z"
   id="path14" />
		<path
   fill="#FF5C8E"
   d="M263.2,574.8c-7.3-2.4-12.6-7.6-14.7-14.5c-3.7-11.9,1.4-23.6,4.8-29.6c4.9-8.6,12-15.2,21.1-22.4    c7.1-5.6,20.3-16.1,20.7-30.8c0.2-6.7-2.4-13.6-6.7-18.1c-3.3-3.4-7.4-5.2-11.9-5.2c-1.8,0-3.6,0.3-5.4,0.9    c3.9,0.3,7.5,2.1,10.5,5.2c4.4,4.5,6.9,11.4,6.7,18.1c-0.5,14.7-13.6,25.1-20.7,30.8c-9.1,7.2-16.2,13.8-21.1,22.4    c-3.4,5.9-8.5,17.7-4.8,29.6c2.2,7,7.4,12.1,14.7,14.5c2.2,0.7,4.7,1.1,7.4,1.1c2.3,0,4.8-0.3,7.4-0.9c-0.2,0-0.5,0-0.7,0    C267.9,576,265.4,575.6,263.2,574.8z"
   id="path16" />
		<path
   fill="#FF5C8E"
   d="M401.7,642.3c-8.3-5.2-14.3-12.2-17.4-20.2c-4.1-10.7-2.5-22.7-0.5-34c0.2-1.1,0.4-2.3,0.6-3.4    c1.7-9.7,3.7-20.6,1.2-31.4c-3.7-16-20.4-28.1-38.7-28.1c-2.8,0-5.5,0.3-8.1,0.9c0.5,0,0.9,0,1.4,0c18.3,0,35,12.1,38.7,28.1    c2.5,10.8,0.5,21.7-1.2,31.4c-0.2,1.1-0.4,2.3-0.6,3.4c-2,11.3-3.5,23.3,0.5,34c3.1,8,9.1,15,17.4,20.2c7.2,4.5,16.1,6.9,25.8,6.9    c3.6,0,7.3-0.3,11-1c-1.4,0.1-2.9,0.2-4.3,0.2C417.8,649.1,408.9,646.8,401.7,642.3z"
   id="path18" />
		<path
   fill="#FF5C8E"
   d="M227.4,464.3c-2.3-10.2,6.9-16.5,20.1-24.2l1.5-0.9c1-0.6,2.1-1.1,3.2-1.8c5.8-3.1,13.9-7.4,16.5-16.4    c1.6-5.7,1-11.8-1.7-16.4c-2.3-4-6.1-6.7-10.7-7.7c-1.8-0.4-3.7-0.6-5.7-0.6c-2.4,0-4.7,0.3-7,0.8c0.1,0,0.2,0,0.3,0    c1.9,0,3.8,0.2,5.7,0.6c4.5,1,8.3,3.7,10.7,7.7c2.7,4.6,3.4,10.7,1.7,16.4c-2.6,9.1-10.6,13.3-16.5,16.4c-1.1,0.6-2.2,1.2-3.2,1.8    l-1.5,0.9c-13.3,7.7-22.5,13.9-20.1,24.2c1.5,6.8,9.1,10.4,15.4,10.4c0.8,0,1.6-0.1,2.4-0.2c1.1-0.2,2.1-0.4,3.1-0.7    C235.6,474.2,228.9,470.6,227.4,464.3z"
   id="path20" />
		<path
   fill="#FF5C8E"
   d="M595.2,413.3c-3.6,0-6.8,0.3-9.5,0.9c0.9,0,1.8-0.1,2.8-0.1c2.1,0,3.8,0.1,4.9,0.2    c1.7,0.1,3.5,0.3,5.2,0.3c2.6,0,4.6-0.3,6.3-0.8c-1.6,0-3.3-0.1-4.8-0.2C599,413.4,597.2,413.3,595.2,413.3z"
   id="path22" />
		<path
   fill="#FF5C8E"
   d="M562.5,291c0.7-0.6,1.5-1.3,2.1-1.8c7.1-6,13.6-12.6,19.9-18.9c1.3-1.3,2.7-2.7,4-4    c7.9-7.9,15.8-12.6,24-14.5c-10.6,0.3-20.7,5.3-30.7,15.3c-1.3,1.3-2.7,2.7-4,4c-6.3,6.3-12.9,12.9-19.9,18.9    c-0.7,0.6-1.4,1.2-2.1,1.8c-5.9,5.1-13.5,11.7-21.9,14c0.2,0,0.4,0,0.6,0C545.4,305.9,555.3,297.3,562.5,291z"
   id="path24" />
		<path
   fill="#FF5C8E"
   d="M372.3,246.4c6.7-10.2,8.8-22.1,6.2-35.4c-2.7-14.4-1.3-22.2,5-27.1c2.4-1.9,5.3-3.2,8.2-4.1    c-0.3,0-0.5,0-0.8,0c-4.8,0-10.1,1.8-14.2,4.9c-6.3,4.8-7.8,12.7-5,27.1c2.5,13.2,0.4,25.1-6.2,35.4c-5.3,8.1-13.9,13.7-24,15.7    C354.5,262.4,365.9,256.3,372.3,246.4z"
   id="path26" />
		<path
   fill="#FF5C8E"
   d="M435.4,254.8c9.1-2.6,18.1-9.6,24.1-18.9c4.9-7.7,8-16,11-24.1c1.6-4.4,3.2-8.6,5-12.5    c7.5-16.6,22.2-28.6,38.8-31.8c-1.4,0.1-2.9,0.2-4.4,0.4c-17.5,2.5-33.2,14.8-41.1,32.2c-1.8,4-3.3,8.1-5,12.5    c-3,8.1-6.1,16.4-11,24.1c-6,9.3-15,16.4-24.1,18.9c-0.1,0-0.1,0-0.2,0c0.1,0,0.2,0,0.4,0C431.1,255.7,433.3,255.4,435.4,254.8z"
   id="path28" />
		<path
   fill="#FF5C8E"
   d="M529,564.2c-0.4-1.2-0.8-2.5-1.2-3.8c-2.9-9.2-6.8-21.8-19.7-25.9c-2.9-0.9-5.8-1.4-8.8-1.4    c-2.3,0-4.6,0.3-6.7,0.8c2.9,0,5.9,0.5,8.8,1.4c12.9,4.1,16.8,16.7,19.7,25.9c0.4,1.3,0.8,2.6,1.2,3.8c3.4,10.2,8.5,16.4,15.6,19    c1.3,0.5,2.8,0.7,4.3,0.7c1.7,0,3.6-0.3,5.3-0.9c-1-0.1-2-0.3-2.9-0.7C537.6,580.7,532.5,574.4,529,564.2z"
   id="path30" />
		<path
   fill="#FF5C8E"
   d="M611.6,467.9c-5.6-4.7-11.5-9.5-18.9-12.7c-2.2-0.9-9.8-4-17.7-4c-2.4,0-4.6,0.3-6.6,0.8    c7.9,0,15.5,3.1,17.6,4c7.4,3.3,13.3,8.1,18.9,12.7c3,2.5,5.9,4.8,8.9,6.9c4.2,2.9,8.9,4.4,13.5,4.4c0,0,0,0,0,0c2,0,4-0.3,6-0.9    c-4.4-0.1-8.8-1.6-12.8-4.4C617.4,472.8,614.6,470.4,611.6,467.9z"
   id="path32" />
		<path
   fill="#FF5C8E"
   d="M545.2,495.8c-2.1,0-4.1,0.3-5.8,0.9c9.1,0.3,19.2,5.9,23.4,8.9c2.8,2,6,3.1,8.9,3.1c1.7,0,3.1-0.4,4.4-1    c-2.3-0.4-4.6-1.4-6.7-2.9C565.2,501.7,554.5,495.8,545.2,495.8z"
   id="path34" />
	</g>
	<path
   fill="#FF0037"
   d="M639.9,157.8c-6.1-10.3-19.7-16.3-31.9-11c-5.1,2.2-9.2,6.2-12,10.9c-5.9,10-3,23.6,5.4,31.2   c12.7,11.5,35.4,3.6,40.7-11.9C644.3,170.2,643.1,163.4,639.9,157.8z"
   id="path38" />
	<path
   fill="#FF0037"
   d="M667.1,374.3c-7.5-8.5-23.5-10.3-29.5,1.9c-4.4,8.9,1.6,20.8,10.4,24.2c8.9,3.5,19.2-1.3,22.2-10.3   C672.3,383.9,670.6,378.3,667.1,374.3z"
   id="path40" />
	<path
   fill="#FF0037"
   d="M335.5,177.8c-2-4.4-7.3-6.4-11.7-6.7c-18.1-1.4-15.9,30.2,1.5,29.5C337.1,200.2,339.6,186.6,335.5,177.8z"
   id="path42" />
	<path
   fill="#FF0037"
   d="M189.5,471.7c-11.3-7.4-31-0.7-34.4,13.9c-2.8,12.1,5.3,25.6,18.5,25.1c13.7-0.5,26.5-14.3,23.2-28.2   C195.6,477.5,192.9,473.9,189.5,471.7z"
   id="path44" />
	<path
   fill="#FF0037"
   d="M190.4,538.2c-2.2-0.6-4.6-0.6-7,0.2c-9.1,3.1-12.1,16.5-6.1,23.6c6.5,7.7,19.4,5.1,23.5-3.7   C204.5,550.4,198.4,540.4,190.4,538.2z"
   id="path46" />
	<path
   fill="#FF0037"
   d="M319.2,624.9c-4.2-2.4-9.3-3.4-14.5-2.1c-21.7,5.1-19.5,38.5,2.1,41.6c12.7,1.9,22.7-8.8,22.9-21.2   C329.8,635.4,325.5,628.5,319.2,624.9z"
   id="path48" />
	<path
   fill="#FF5C8E"
   d="M320.3,177.4c-5.4,0-5.4,8.4,0,8.4C325.7,185.7,325.7,177.4,320.3,177.4z"
   id="path50" />
	<path
   fill="#FF5C8E"
   d="M612.6,152.4c-9.2,0-9.2,14.2,0,14.2S621.8,152.4,612.6,152.4z"
   id="path52" />
	<path
   fill="#FF5C8E"
   d="M647.8,373.9h-0.2c-2.3,0-4.2,1.9-4.2,4.2c0,2.3,1.9,4.2,4.2,4.2h0.2c2.3,0,4.2-1.9,4.2-4.2   C652,375.8,650.1,373.9,647.8,373.9z"
   id="path54" />
	<path
   fill="#FF5C8E"
   d="M312.4,645.3c-8.6,0-8.6,13.4,0,13.4S321,645.3,312.4,645.3z"
   id="path56" />
	<path
   fill="#FF5C8E"
   d="M173.1,490.7c-8.6,0-8.6,13.4,0,13.4C181.7,504.2,181.7,490.7,173.1,490.7z"
   id="path58" />
	<path
   fill="#FF5C8E"
   d="M186.5,555.1h-0.2c-1.8,0-3.4,1.5-3.4,3.4s1.5,3.4,3.4,3.4h0.2c1.8,0,3.4-1.5,3.4-3.4   S188.3,555.1,186.5,555.1z"
   id="path60" />
	<path
   fill="#FF1F64"
   d="M267.5,199.6c-3.8-9.9-12.6-16.7-23-18.3c-8.5-1.3-17.2,0.6-25.2,3.9c-6.5,2.7-13,6.5-16.4,12.7   c-7.8,14.3,6.7,23,18.7,25.6c7.7,1.7,15.5,3.3,23.3,4.7c5.9,1.1,12.5,0.4,17.4-3.4c4.5-3.4,6.9-9.2,7-14.8   C269.4,206.4,268.8,202.9,267.5,199.6z"
   id="path62" />
	<path
   fill="#FF1F64"
   d="M535,176.6c-1.7-0.6-3.6-1.1-5.6-1.3c-9.2-0.9-14.1,7.3-10.8,15.6c1.7,4.4,4.6,8.1,5.8,12.8   c1.2,4.7,0.6,9.7-0.8,14.3c-1,3.1-3.3,6.6-2.1,10.1c1.2,3.5,3.8,5.7,7.6,6c9,0.6,15.7-5.7,19-13.5   C554.1,206.1,550.8,182.5,535,176.6z"
   id="path64" />
	<path
   fill="#FF1F64"
   d="M646.8,281.1c-1.2-0.8-2.7-1.2-4.2-1.2c-0.4-0.1-0.8-0.2-1.3-0.1c-4.1,0.4-8.2,1.6-10.6,5.1   c-2.5,3.6-3,7.9-1.6,12c2.7,7.9,12.2,10.8,18.9,6C655,297.8,653.6,285.8,646.8,281.1z"
   id="path66" />
	<path
   fill="#FF1F64"
   d="M548.7,545.5c-3.6,0.5-4.2,5.4-1.6,6.5c0.1,0.1,0.2,0.2,0.3,0.3c3.5,2.6,4.2,6.7,3.6,10.8   c-0.4,2.7-2.6,5.9-1.8,8.6c1.6,5.7,8.1,2.9,10.5-0.3C565.4,563.4,560.5,544,548.7,545.5z"
   id="path68" />
	<path
   fill="#FF1F64"
   d="M460.5,582.6c-7.5-2.6-15.2,3.1-18.2,9.6c-1.6,3.5-1.9,7.3-1.8,11c0.1,5.6-0.7,9.4-5.6,12.6   c-6.7,4.3-15.6,2.2-21.6,7.7c-2.1,2-3.5,6.3-1.8,8.9c4.7,7.4,15.9,6.5,23.4,5.2c9.8-1.7,18.9-6.6,25.7-13.8   c5.9-6.2,9.5-13.8,10-22.4C471.2,593.2,469,585.5,460.5,582.6z"
   id="path70" />
</g>



</svg>
